<?xml version="1.0" encoding="utf-8"?>
<!-- Generator: Adobe Illustrator 15.1.0, SVG Export Plug-In . SVG Version: 6.00 Build 0)  -->
<!DOCTYPE svg PUBLIC "-//W3C//DTD SVG 1.1//EN" "http://www.w3.org/Graphics/SVG/1.1/DTD/svg11.dtd">
<svg version="1.1" id="Ebene_1" xmlns="http://www.w3.org/2000/svg" xmlns:xlink="http://www.w3.org/1999/xlink" x="0px" y="0px"
	 width="816px" height="437px" viewBox="0 0 816 437" enable-background="new 0 0 816 437" xml:space="preserve">
<metadata>
<x:xmpmeta xmlns:x="adobe:ns:meta/" x:xmptk="Adobe XMP Core 5.0-c060 61.134777, 2010/02/12-17:32:00">
   <rdf:RDF xmlns:rdf="http://www.w3.org/1999/02/22-rdf-syntax-ns#">
      <rdf:Description rdf:about=""
            xmlns:dc="http://purl.org/dc/elements/1.1/">
         <dc:format>image/svg+xml</dc:format>
         <dc:title>
            <rdf:Alt>
               <rdf:li xml:lang="x-default">Zwei-Quellen-Interferenz von Wellen bei großem Abstand Sender Empfänger</rdf:li>
            </rdf:Alt>
         </dc:title>
         <dc:creator>
            <rdf:Seq>
               <rdf:li>Stefan Richtberg (stefan@richtberg.org)</rdf:li>
            </rdf:Seq>
         </dc:creator>
         <dc:rights>
            <rdf:Alt>
               <rdf:li xml:lang="x-default">© Stefan Richtberg für www.leifiphysik.de</rdf:li>
            </rdf:Alt>
         </dc:rights>
                  <dc:description>
            <rdf:Alt>
               <rdf:li xml:lang="x-default">Zwei-Quellen-Interferenz von Wellen bei großem Abstand Sender Empfänger</rdf:li>
            </rdf:Alt>
         </dc:description>
      </rdf:Description>
      <rdf:Description rdf:about=""
            xmlns:Iptc4xmpCore="http://iptc.org/std/Iptc4xmpCore/1.0/xmlns/">
         <Iptc4xmpCore:CreatorContactInfo rdf:parseType="Resource">
            <Iptc4xmpCore:CiAdrExtadr>Trautmannstr. 7</Iptc4xmpCore:CiAdrExtadr>
            <Iptc4xmpCore:CiAdrCity>München</Iptc4xmpCore:CiAdrCity>
            <Iptc4xmpCore:CiAdrPcode>81373</Iptc4xmpCore:CiAdrPcode>
            <Iptc4xmpCore:CiAdrCtry>Germany</Iptc4xmpCore:CiAdrCtry>
            <Iptc4xmpCore:CiEmailWork>stefan@richtberg.org</Iptc4xmpCore:CiEmailWork>
            <Iptc4xmpCore:CiUrlWork>www.richtberg.org</Iptc4xmpCore:CiUrlWork>
         </Iptc4xmpCore:CreatorContactInfo>
      </rdf:Description>
   </rdf:RDF>
</x:xmpmeta>
</metadata>
<rect x="739.667" y="14" fill="#D2D2D2" width="12.833" height="376"/>
<path fill="#FF00FF" d="M80,185.941c4.569,0,9.001-0.584,13.226-1.682L80,133.5V185.941z"/>
<g>
	<path d="M22.849,419.98c-1.82-0.48-3.601-1.021-5.161-1.561c-0.3-0.1-0.56-0.2-0.82-0.2c-3.221-0.12-5.941-2.48-5.941-6.841
		c0-4.321,2.621-7.102,6.261-7.102c3.681,0,6.062,2.84,6.062,6.821c0,3.48-1.601,5.681-3.841,6.481v0.08
		c1.34,0.34,2.8,0.66,3.94,0.86L22.849,419.98z M21.409,411.198c0-2.721-1.4-5.501-4.261-5.501c-2.94,0-4.381,2.721-4.381,5.642
		c0,2.88,1.561,5.461,4.321,5.461C19.848,416.8,21.409,414.259,21.409,411.198z"/>
	<path d="M33.608,415.34c0,1.02,0.02,1.9,0.08,2.66h-1.561l-0.1-1.58h-0.04c-0.44,0.78-1.48,1.8-3.201,1.8
		c-1.521,0-3.341-0.86-3.341-4.24v-5.661h1.76v5.341c0,1.84,0.58,3.101,2.161,3.101c1.18,0,2-0.82,2.32-1.62
		c0.1-0.24,0.16-0.561,0.16-0.9v-5.921h1.76V415.34z"/>
	<path d="M37.506,413.479c0.04,2.38,1.541,3.36,3.321,3.36c1.26,0,2.041-0.22,2.681-0.5l0.32,1.26c-0.62,0.28-1.7,0.62-3.241,0.62
		c-2.98,0-4.761-1.98-4.761-4.9c0-2.921,1.72-5.201,4.541-5.201c3.181,0,4,2.761,4,4.541c0,0.359-0.02,0.62-0.06,0.82H37.506z
		 M42.667,412.219c0.02-1.101-0.46-2.841-2.44-2.841c-1.8,0-2.561,1.62-2.701,2.841H42.667z"/>
	<path d="M46.546,403.797h1.76V418h-1.76V403.797z"/>
	<path d="M51.266,403.797h1.76V418h-1.76V403.797z"/>
	<path d="M56.966,413.479c0.04,2.38,1.541,3.36,3.321,3.36c1.26,0,2.041-0.22,2.681-0.5l0.32,1.26c-0.62,0.28-1.7,0.62-3.241,0.62
		c-2.98,0-4.761-1.98-4.761-4.9c0-2.921,1.72-5.201,4.541-5.201c3.181,0,4,2.761,4,4.541c0,0.359-0.02,0.62-0.06,0.82H56.966z
		 M62.127,412.219c0.02-1.101-0.46-2.841-2.44-2.841c-1.8,0-2.561,1.62-2.701,2.841H62.127z"/>
	<path d="M66.005,410.938c0-1.021-0.02-1.82-0.08-2.62h1.56l0.1,1.6h0.04c0.48-0.899,1.601-1.8,3.201-1.8
		c1.34,0,3.421,0.8,3.421,4.12V418h-1.76v-5.581c0-1.561-0.58-2.86-2.241-2.86c-1.14,0-2.041,0.819-2.36,1.8
		c-0.08,0.221-0.12,0.521-0.12,0.82V418h-1.76V410.938z"/>
	<path d="M85.146,404.117c-1.46,1.98-2.5,4.561-2.5,8.201c0,3.562,1.1,6.102,2.5,8.103h-1.36c-1.26-1.661-2.621-4.222-2.621-8.122
		c0.02-3.921,1.36-6.501,2.621-8.182H85.146z"/>
	<path d="M86.865,415.88c0.78,0.5,1.9,0.88,3.101,0.88c1.78,0,2.821-0.94,2.821-2.301c0-1.24-0.72-1.98-2.541-2.66
		c-2.201-0.801-3.561-1.961-3.561-3.841c0-2.101,1.741-3.661,4.361-3.661c1.36,0,2.381,0.32,2.961,0.66l-0.48,1.421
		c-0.42-0.261-1.32-0.641-2.541-0.641c-1.841,0-2.541,1.101-2.541,2.021c0,1.261,0.82,1.881,2.681,2.601
		c2.281,0.88,3.421,1.98,3.421,3.961c0,2.08-1.521,3.9-4.701,3.9c-1.3,0-2.72-0.399-3.44-0.88L86.865,415.88z"/>
	<path d="M97.985,413.479c0.04,2.38,1.541,3.36,3.321,3.36c1.26,0,2.041-0.22,2.681-0.5l0.32,1.26c-0.62,0.28-1.7,0.62-3.241,0.62
		c-2.98,0-4.761-1.98-4.761-4.9c0-2.921,1.72-5.201,4.541-5.201c3.181,0,4,2.761,4,4.541c0,0.359-0.02,0.62-0.06,0.82H97.985z
		 M103.146,412.219c0.02-1.101-0.46-2.841-2.44-2.841c-1.8,0-2.561,1.62-2.701,2.841H103.146z"/>
	<path d="M107.025,410.938c0-1.021-0.02-1.82-0.08-2.62h1.56l0.1,1.6h0.04c0.48-0.899,1.601-1.8,3.201-1.8
		c1.34,0,3.421,0.8,3.421,4.12V418h-1.76v-5.581c0-1.561-0.58-2.86-2.241-2.86c-1.14,0-2.041,0.819-2.36,1.8
		c-0.08,0.221-0.12,0.521-0.12,0.82V418h-1.76V410.938z"/>
	<path d="M126.466,403.797v11.702c0,0.86,0.04,1.841,0.08,2.501h-1.561l-0.08-1.681h-0.06c-0.52,1.08-1.68,1.9-3.261,1.9
		c-2.34,0-4.161-1.98-4.161-4.921c-0.02-3.221,2-5.181,4.341-5.181c1.5,0,2.48,0.7,2.92,1.46h0.04v-5.781H126.466z M124.726,412.259
		c0-0.22-0.02-0.521-0.08-0.74c-0.26-1.101-1.221-2.021-2.541-2.021c-1.82,0-2.9,1.601-2.9,3.721c0,1.961,0.98,3.581,2.861,3.581
		c1.18,0,2.26-0.8,2.581-2.101c0.06-0.24,0.08-0.48,0.08-0.76V412.259z"/>
	<path d="M130.384,413.479c0.04,2.38,1.541,3.36,3.321,3.36c1.26,0,2.041-0.22,2.681-0.5l0.32,1.26c-0.62,0.28-1.7,0.62-3.241,0.62
		c-2.98,0-4.761-1.98-4.761-4.9c0-2.921,1.72-5.201,4.541-5.201c3.181,0,4,2.761,4,4.541c0,0.359-0.02,0.62-0.06,0.82H130.384z
		 M135.545,412.219c0.02-1.101-0.46-2.841-2.44-2.841c-1.8,0-2.561,1.62-2.701,2.841H135.545z"/>
	<path d="M139.424,411.339c0-1.141-0.02-2.121-0.08-3.021h1.54l0.08,1.92h0.06c0.44-1.3,1.521-2.12,2.701-2.12
		c0.18,0,0.32,0.02,0.48,0.04v1.66c-0.18-0.04-0.36-0.04-0.6-0.04c-1.24,0-2.12,0.92-2.36,2.24c-0.04,0.24-0.06,0.54-0.06,0.82V418
		h-1.76V411.339z"/>
	<path d="M144.904,420.421c1.4-1.98,2.5-4.562,2.5-8.162s-1.08-6.142-2.5-8.142h1.36c1.26,1.641,2.621,4.221,2.621,8.142
		c-0.02,3.921-1.36,6.481-2.621,8.162H144.904z"/>
</g>
<g>
	<path d="M712.673,409.88c0.78,0.5,1.901,0.88,3.102,0.88c1.78,0,2.82-0.94,2.82-2.301c0-1.24-0.721-1.98-2.541-2.66
		c-2.2-0.801-3.561-1.961-3.561-3.841c0-2.101,1.74-3.661,4.361-3.661c1.36,0,2.38,0.32,2.96,0.66l-0.479,1.421
		c-0.42-0.261-1.32-0.641-2.541-0.641c-1.84,0-2.54,1.101-2.54,2.021c0,1.261,0.82,1.881,2.681,2.601
		c2.28,0.88,3.42,1.98,3.42,3.961c0,2.08-1.52,3.9-4.7,3.9c-1.301,0-2.721-0.399-3.441-0.88L712.673,409.88z"/>
	<path d="M729.714,411.66c-0.46,0.22-1.479,0.56-2.78,0.56c-2.921,0-4.821-1.98-4.821-4.94c0-2.98,2.041-5.161,5.201-5.161
		c1.041,0,1.961,0.26,2.44,0.52l-0.399,1.341c-0.42-0.221-1.08-0.46-2.041-0.46c-2.22,0-3.42,1.66-3.42,3.66
		c0,2.241,1.439,3.621,3.36,3.621c1,0,1.66-0.24,2.16-0.46L729.714,411.66z"/>
	<path d="M731.772,397.797h1.761v6.062h0.04c0.28-0.5,0.72-0.96,1.26-1.261c0.521-0.3,1.141-0.479,1.801-0.479
		c1.301,0,3.381,0.8,3.381,4.12V412h-1.761v-5.562c0-1.56-0.58-2.86-2.24-2.86c-1.141,0-2.021,0.8-2.36,1.74
		c-0.101,0.261-0.12,0.521-0.12,0.841V412h-1.761V397.797z"/>
	<path d="M744.834,399.598c0,0.6-0.42,1.08-1.12,1.08c-0.641,0-1.061-0.48-1.061-1.08c0-0.601,0.44-1.101,1.101-1.101
		C744.394,398.497,744.834,398.978,744.834,399.598z M742.873,412v-9.682h1.761V412H742.873z"/>
	<path d="M747.553,405.339c0-1.141-0.02-2.121-0.08-3.021h1.541l0.08,1.92h0.06c0.44-1.3,1.521-2.12,2.7-2.12
		c0.181,0,0.32,0.02,0.48,0.04v1.66c-0.18-0.04-0.36-0.04-0.6-0.04c-1.24,0-2.121,0.92-2.361,2.24c-0.04,0.24-0.06,0.54-0.06,0.82
		V412h-1.761V405.339z"/>
	<path d="M754.173,404.938c0-1.021-0.04-1.82-0.08-2.62h1.541l0.08,1.58h0.06c0.54-0.92,1.44-1.78,3.061-1.78
		c1.301,0,2.301,0.8,2.721,1.94h0.04c0.3-0.561,0.7-0.961,1.101-1.261c0.58-0.439,1.2-0.68,2.12-0.68c1.301,0,3.201,0.84,3.201,4.2
		V412h-1.721v-5.461c0-1.881-0.7-2.98-2.101-2.98c-1.021,0-1.78,0.74-2.101,1.58c-0.08,0.26-0.14,0.56-0.14,0.88V412h-1.721v-5.801
		c0-1.541-0.68-2.641-2.021-2.641c-1.08,0-1.9,0.88-2.181,1.76c-0.1,0.24-0.14,0.561-0.14,0.86V412h-1.721V404.938z"/>
</g>
<line fill="none" stroke="#000000" stroke-width="2" stroke-miterlimit="10" x1="80" y1="133.5" x2="80" y2="323"/>
<g>
	<g>
		<line fill="none" stroke="#000000" stroke-width="2" stroke-miterlimit="10" x1="80" y1="133.5" x2="77" y2="133.5"/>
		
			<line fill="none" stroke="#000000" stroke-width="2" stroke-miterlimit="10" stroke-dasharray="5.7778,5.7778" x1="71.222" y1="133.5" x2="27.889" y2="133.5"/>
		<line fill="none" stroke="#000000" stroke-width="2" stroke-miterlimit="10" x1="25" y1="133.5" x2="22" y2="133.5"/>
	</g>
</g>
<g>
	<g>
		<line fill="none" stroke="#000000" stroke-width="2" stroke-miterlimit="10" x1="80" y1="323" x2="77" y2="323"/>
		
			<line fill="none" stroke="#000000" stroke-width="2" stroke-miterlimit="10" stroke-dasharray="5.7778,5.7778" x1="71.222" y1="323" x2="27.889" y2="323"/>
		<line fill="none" stroke="#000000" stroke-width="2" stroke-miterlimit="10" x1="25" y1="323" x2="22" y2="323"/>
	</g>
</g>
<line fill="none" stroke="#000000" stroke-width="2" stroke-miterlimit="10" stroke-dasharray="6.738" x1="80" y1="323" x2="80" y2="398.667"/>
<g>
	<path d="M32.016,226.244c1.148-1.344,2.324-2.156,3.752-2.156c2.128,0,3.808,1.54,3.808,4.9c0,4.592-2.716,8.848-7.532,8.848
		c-1.624,0-3.052-0.336-4.424-1.036l3.304-16.268c0.028-0.112,0.112-0.644,0.112-0.98c0-0.616-0.448-0.812-1.008-0.812
		c-0.308,0-0.84,0.056-0.84,0.056v-0.728l3.864-0.308h0.616l-1.792,8.484H32.016z M30.112,235.652
		c0.364,0.336,1.176,1.008,2.296,1.008c3.192,0,4.704-3.304,4.704-7.561c0-2.52-0.98-3.443-2.184-3.443
		c-1.708,0-2.884,1.68-3.444,2.996L30.112,235.652z"/>
</g>
<g>
	<path fill="#009600" d="M61.516,96.557c-0.896-3.52-2.112-5.216-5.344-5.184c-2.176,0-3.424,1.024-3.424,3.008
		c0,2.4,2.304,3.552,4.704,4.928c2.848,1.6,6.016,3.04,6.016,6.847c0,3.712-2.784,5.728-6.496,5.728c-3.328,0-4.576-0.96-5.312-0.96
		c-0.448,0-0.832,0.416-0.864,1.056h-0.992l-0.288-6.912h0.992c1.12,4.416,2.752,5.44,6.016,5.408c2.4,0,3.904-0.96,3.904-3.392
		c0-2.816-2.688-3.936-5.312-5.44c-2.56-1.472-5.152-3.008-5.152-6.367c0-3.36,2.752-5.152,6.08-5.184
		c2.912,0,3.616,0.992,4.384,0.992c0.512,0,0.832-0.256,0.992-0.928h0.832l0.224,6.399H61.516z"/>
	<path fill="#009600" d="M66.125,115.5v-0.56c1.881,0,2.581-0.34,2.581-1.34v-8.462c0-0.7-0.16-0.98-0.66-0.98
		c-0.4,0-1.42,0.12-2.041,0.32v-0.66l3.881-1.1h0.58V113.6c0,0.98,0.74,1.34,2.581,1.34v0.56H66.125z"/>
</g>
<g>
	<path fill="#0000FF" d="M53.755,337.057c-0.896-3.521-2.112-5.217-5.344-5.184c-2.176,0-3.424,1.023-3.424,3.008
		c0,2.399,2.304,3.551,4.704,4.928c2.848,1.6,6.016,3.039,6.016,6.847c0,3.712-2.784,5.728-6.496,5.728
		c-3.328,0-4.576-0.96-5.312-0.96c-0.448,0-0.832,0.416-0.864,1.056h-0.992l-0.288-6.911h0.992c1.12,4.416,2.752,5.44,6.016,5.407
		c2.4,0,3.904-0.959,3.904-3.391c0-2.816-2.688-3.937-5.312-5.44c-2.56-1.472-5.152-3.008-5.152-6.367
		c0-3.36,2.752-5.151,6.08-5.184c2.912,0,3.616,0.991,4.384,0.991c0.512,0,0.832-0.256,0.992-0.928h0.832l0.224,6.4H53.755z"/>
	<path fill="#0000FF" d="M65.406,355.999h-7.882v-0.681l3.041-3.04c1.98-2.04,2.98-3.301,2.98-5.401c0-1.5-0.96-2.461-2.5-2.461
		c-1.3,0-2.18,0.461-2.92,1.961l-0.48-0.2c0.62-1.94,1.98-3.061,3.921-3.061c2.26,0,3.841,1.36,3.841,3.461
		c0,1.78-1.141,3.161-3.261,5.301l-2.641,2.501v0.1l1.4-0.061h2.78c1.061,0,1.32-0.42,1.78-1.619h0.58L65.406,355.999z"/>
</g>
<line fill="none" stroke="#FF6600" stroke-width="2" stroke-miterlimit="10" x1="80" y1="323" x2="250.5" y2="279.5"/>
<line fill="none" stroke="#FF6600" stroke-width="2" stroke-miterlimit="10" x1="80" y1="133.5" x2="250.5" y2="89.5"/>
<line fill="none" stroke="#FF6600" stroke-width="2" stroke-miterlimit="10" x1="125.772" y1="311.067" x2="80.198" y2="133.5"/>
<path fill="#FF00FF" d="M197.822,195.178c2.512,9.688,3.848,19.849,3.848,30.322H81.198L197.822,195.178z"/>
<path fill="none" stroke="#000000" stroke-miterlimit="10" d="M197.822,195.178c2.512,9.688,3.848,19.85,3.848,30.322"/>
<line fill="none" stroke="#000000" stroke-width="2" stroke-miterlimit="10" stroke-dasharray="8" x1="81.198" y1="225.5" x2="292.5" y2="225.5"/>
<line fill="none" stroke="#000000" stroke-width="2" stroke-miterlimit="10" stroke-dasharray="8" x1="81.198" y1="225.5" x2="292.5" y2="170"/>
<g>
	<path d="M182.044,211.043c0.56-1.82,0.924-2.884,1.288-3.892l2.744-0.084v0.392l-0.616,1.008c-1.652,2.94-2.8,4.9-2.8,5.04
		c0,2.044,0.336,5.04,1.96,5.04c0.896,0,1.372-0.476,1.82-1.064l0.476,0.308c-0.364,0.756-1.176,2.855-3.444,2.855
		c-1.316,0-1.764-0.896-1.82-2.379c-0.056-0.7-0.028-1.456-0.084-2.38h-0.224c-1.288,2.66-2.828,4.844-4.984,4.844
		c-2.94,0-4.116-2.8-4.116-6.412c0-4.34,2.324-7.364,5.656-7.364c2.744,0,3.5,2.38,3.976,4.088H182.044z M181.232,212.779
		c0-2.604-1.372-3.528-3.304-3.528c-2.66,0-4.424,1.708-4.424,4.732c0,3.276,1.708,4.228,3.22,4.228
		C179.497,218.211,181.232,214.795,181.232,212.779z"/>
</g>
<g>
	<g>
		<line fill="none" stroke="#000000" stroke-width="2" stroke-miterlimit="10" x1="33" y1="210.339" x2="33" y2="147.622"/>
		<g>
			<polygon points="33,133.5 41.131,153.399 33,148.677 24.871,153.399 			"/>
		</g>
	</g>
</g>
<g>
	<g>
		<line fill="none" stroke="#000000" stroke-width="2" stroke-miterlimit="10" x1="33" y1="244" x2="33" y2="308.879"/>
		<g>
			<polygon points="33,323 24.869,303.102 33,307.823 41.129,303.102 			"/>
		</g>
	</g>
</g>
<line fill="none" stroke="#000000" stroke-miterlimit="10" x1="80" y1="179.25" x2="80" y2="133.5"/>
<path fill="none" stroke="#000000" stroke-miterlimit="10" d="M80,185.941c4.569,0,9.001-0.584,13.226-1.682"/>
<g>
	<path d="M136.479,151.079c0.56-1.82,0.924-2.884,1.288-3.892l2.744-0.084v0.392l-0.616,1.008c-1.652,2.94-2.8,4.9-2.8,5.04
		c0,2.044,0.336,5.04,1.96,5.04c0.896,0,1.372-0.476,1.82-1.064l0.476,0.308c-0.364,0.756-1.176,2.855-3.444,2.855
		c-1.316,0-1.764-0.896-1.82-2.379c-0.056-0.7-0.028-1.456-0.084-2.38h-0.224c-1.288,2.66-2.828,4.844-4.984,4.844
		c-2.94,0-4.116-2.8-4.116-6.412c0-4.34,2.324-7.364,5.656-7.364c2.744,0,3.5,2.38,3.976,4.088H136.479z M135.667,152.815
		c0-2.604-1.372-3.528-3.304-3.528c-2.66,0-4.424,1.708-4.424,4.732c0,3.276,1.708,4.228,3.22,4.228
		C133.931,158.247,135.667,154.831,135.667,152.815z"/>
</g>
<g>
	<g>
		
			<line fill="none" stroke="#000000" stroke-width="2" stroke-miterlimit="10" x1="120.465" y1="156.375" x2="98.313" y2="171.344"/>
		<g>
			<polygon points="86.613,179.25 98.548,161.373 99.188,170.753 107.652,174.845 			"/>
		</g>
	</g>
</g>
<path fill="none" stroke="#000000" stroke-miterlimit="10" d="M105.151,316.585c-0.47-1.76-0.72-3.609-0.72-5.518
	c0-9.954,6.815-18.316,16.034-20.676"/>
<circle stroke="#000000" stroke-miterlimit="10" cx="114.333" cy="305.744" r="2.256"/>
<line fill="none" stroke="#FF00FF" stroke-width="2" stroke-miterlimit="10" x1="80" y1="323" x2="125.772" y2="311.067"/>
<g>
	<path fill="#FF00FF" d="M98.67,343.001v-0.784l8.092-17.752h1.064l7.672,17.752v0.784H98.67z M106.678,327.909h-0.112
		l-5.656,12.852h10.836L106.678,327.909z"/>
	<path fill="#FF00FF" d="M125.914,333.957h-0.672c-0.084-2.156-1.008-3.528-2.66-3.528c-1.288,0-1.932,0.813-1.932,1.624
		c0,1.177,1.316,2.324,2.548,3.641c1.12,1.204,2.212,2.52,2.212,4.144s-1.092,3.472-4.256,3.472c-1.764,0-2.828-0.588-3.22-0.756
		h-0.084l-0.672,0.756h-0.616l0.728-4.676h0.7c0.28,2.437,1.008,3.725,2.912,3.725c1.288,0,2.184-0.589,2.184-2.045
		c0-1.512-1.008-2.52-2.072-3.527c-1.148-1.092-2.352-2.212-2.352-3.948c0-1.82,1.316-3.248,3.696-3.248
		c1.484,0,2.52,0.561,2.856,0.756h0.084l0.728-0.756h0.532L125.914,333.957z"/>
	<path fill="#FF00FF" d="M132.173,333.425v-1.903h16.688v1.903H132.173z M132.173,340.061v-1.876h16.688v1.876H132.173z"/>
	<path fill="#FF00FF" d="M159.601,331.745c1.148-1.344,2.324-2.156,3.752-2.156c2.128,0,3.808,1.54,3.808,4.9
		c0,4.592-2.716,8.848-7.532,8.848c-1.624,0-3.052-0.336-4.424-1.036l3.304-16.268c0.028-0.112,0.112-0.645,0.112-0.98
		c0-0.615-0.448-0.812-1.008-0.812c-0.308,0-0.84,0.056-0.84,0.056v-0.728l3.864-0.309h0.616l-1.792,8.484H159.601z
		 M157.697,341.153c0.364,0.336,1.176,1.008,2.296,1.008c3.192,0,4.704-3.304,4.704-7.561c0-2.52-0.98-3.443-2.184-3.443
		c-1.708,0-2.884,1.68-3.444,2.996L157.697,341.153z"/>
	<path fill="#FF00FF" d="M172.004,337.457c-1.092,0-1.624-0.672-1.624-1.624c0-0.924,0.616-1.708,1.652-1.708
		c1.064,0,1.652,0.813,1.652,1.736C173.685,336.729,173.097,337.457,172.004,337.457z"/>
	<path fill="#FF00FF" d="M177.8,338.409c0.588,2.884,1.652,3.864,3.724,3.864c1.4,0,2.408-0.532,2.408-1.849
		c0-1.315-0.532-1.848-3.136-3.136c-2.548-1.288-3.696-2.268-3.696-4.34c0-2.296,1.876-3.528,4.284-3.528
		c1.4,0,2.24,0.393,2.94,0.729h0.028l0.476-0.589h0.56l0.084,4.284h-0.756c-0.616-2.66-1.652-3.472-3.36-3.472
		c-1.288,0-2.268,0.588-2.268,1.848c0,1.093,0.924,1.792,3.276,2.996c2.548,1.344,3.92,2.38,3.92,4.452
		c0,2.632-2.184,3.64-4.704,3.64c-1.624,0-2.464-0.42-3.192-0.728h-0.056l-0.588,0.644h-0.588l-0.084-4.815H177.8z"/>
	<path fill="#FF00FF" d="M194.236,343.001h-6.3v-0.784c1.876,0,1.96-0.448,1.96-2.044v-7.812c0-1.204-0.42-1.316-1.232-1.316
		c-0.392,0-0.7,0.056-0.7,0.056v-0.812l3.528-0.784h0.728v10.668c0,1.624,0.14,2.044,2.016,2.044V343.001z M192.696,325.165
		c0,0.868-0.616,1.596-1.596,1.596c-0.952,0-1.596-0.728-1.596-1.596c0-0.84,0.616-1.568,1.596-1.568
		S192.696,324.325,192.696,325.165z"/>
	<path fill="#FF00FF" d="M208.487,340.173c0,1.568,0.196,2.044,2.072,2.044v0.784h-6.468v-0.784c1.988,0,2.072-0.476,2.072-2.044
		v-5.067c0-3.36-1.316-3.893-2.576-3.893c-1.512,0-2.548,1.008-3.388,1.764v7.196c0,1.568,0.112,2.044,2.128,2.044v0.784h-6.412
		v-0.784c1.876,0,1.96-0.476,1.96-2.044v-7.868c0-1.008-0.42-1.231-1.176-1.231c-0.476,0-0.756,0.056-0.756,0.056v-0.812
		l3.556-0.813h0.644l-0.028,2.269h0.112c1.512-1.345,2.744-2.353,4.508-2.353c2.548,0,3.752,1.764,3.752,4.984V340.173z"/>
	<path fill="#FF00FF" d="M219.799,322.562l0.448,0.728c-4.088,2.716-5.6,6.468-5.6,12.04c0,5.628,1.512,9.408,5.6,12.096
		l-0.448,0.784c-4.508-2.324-7.448-6.72-7.448-12.88C212.351,329.225,215.291,324.857,219.799,322.562z"/>
	<path fill="#FF00FF" d="M231.867,333.705c0.56-1.82,0.924-2.884,1.288-3.892l2.744-0.084v0.392l-0.616,1.008
		c-1.652,2.94-2.8,4.9-2.8,5.04c0,2.044,0.336,5.04,1.96,5.04c0.896,0,1.372-0.476,1.82-1.064l0.476,0.309
		c-0.364,0.756-1.176,2.855-3.444,2.855c-1.316,0-1.764-0.896-1.82-2.38c-0.056-0.7-0.028-1.456-0.084-2.38h-0.224
		c-1.288,2.66-2.828,4.844-4.984,4.844c-2.94,0-4.116-2.8-4.116-6.411c0-4.341,2.324-7.364,5.656-7.364
		c2.744,0,3.5,2.38,3.976,4.088H231.867z M231.055,335.441c0-2.604-1.372-3.528-3.304-3.528c-2.66,0-4.424,1.708-4.424,4.731
		c0,3.276,1.708,4.229,3.22,4.229C229.319,340.873,231.055,337.457,231.055,335.441z"/>
	<path fill="#FF00FF" d="M238.138,348.209l-0.448-0.784c4.088-2.688,5.6-6.468,5.6-12.096c0-5.572-1.512-9.324-5.6-12.04
		l0.448-0.728c4.508,2.296,7.448,6.663,7.448,12.768C245.586,341.489,242.646,345.885,238.138,348.209z"/>
</g>
<line fill="none" stroke="#000000" stroke-width="2" stroke-miterlimit="10" stroke-dasharray="8" x1="497" y1="225.5" x2="785.667" y2="225.5"/>
<line fill="none" stroke="#000000" stroke-width="2" stroke-miterlimit="10" x1="739.667" y1="14" x2="739.667" y2="390"/>
<line fill="none" stroke="#FF6600" stroke-width="2" stroke-miterlimit="10" x1="739.667" y1="54.833" x2="521" y2="143.5"/>
<line fill="none" stroke="#FF6600" stroke-width="2" stroke-miterlimit="10" x1="739.667" y1="54.833" x2="521" y2="80"/>
<line fill="none" stroke="#000000" stroke-width="2" stroke-miterlimit="10" stroke-dasharray="8" x1="739.667" y1="54.833" x2="521" y2="111.5"/>
<line fill="none" stroke="#000000" stroke-width="2" stroke-miterlimit="10" stroke-dasharray="6" x1="739.667" y1="54.833" x2="785.667" y2="54.833"/>
<g>
	<path d="M764.332,146.112c0,0-0.14,0.812-0.14,1.176s0.168,0.532,0.476,0.532c0.98,0,1.709-0.924,2.101-1.456l0.56,0.42
		c-0.951,1.372-1.959,2.996-3.863,2.996c-1.064,0-1.625-0.588-1.625-1.456c0-0.336,0.084-0.868,0.141-1.204h-0.225
		c-1.371,1.708-3.023,2.716-4.703,2.716c-1.792,0-3.221-1.344-3.221-4.172c0.028-5.292,3.024-9.576,7.112-9.576
		c1.12,0,2.156,0.42,2.8,1.12h0.084l0.896-4.704c0,0,0.084-0.476,0.084-0.924c0-0.364-0.141-0.84-0.896-0.84
		c-0.476,0-0.924,0.056-0.924,0.056v-0.728l3.836-0.308h0.616L764.332,146.112z M763.045,139.896c0-1.849-1.037-2.744-2.269-2.744
		c-2.8,0-4.479,3.947-4.479,7.644c0,2.464,0.84,3.192,2.1,3.192c1.764,0,3.416-1.681,3.864-3.416
		C762.793,142.388,763.045,140.54,763.045,139.896z"/>
</g>
<g>
	<g>
		<line fill="none" stroke="#000000" stroke-width="2" stroke-miterlimit="10" x1="763" y1="120.667" x2="763" y2="68.955"/>
		<g>
			<polygon points="763,54.833 771.131,74.732 763,70.01 754.871,74.732 			"/>
		</g>
	</g>
</g>
<g>
	<g>
		<line fill="none" stroke="#000000" stroke-width="2" stroke-miterlimit="10" x1="763" y1="159.721" x2="763" y2="211.379"/>
		<g>
			<polygon points="763,225.5 754.869,205.602 763,210.323 771.129,205.602 			"/>
		</g>
	</g>
</g>
<g>
	<path fill="#FF0000" d="M766.207,42.345h-17.086v-0.96c2.592,0,3.104-0.32,3.104-2.816V25.227c0-2.432-0.512-2.944-3.104-2.944
		v-0.96h16.799l0.191,5.248h-1.023c-0.48-3.2-1.28-3.808-5.216-3.808h-4.704v8.127h3.744c2.943,0,3.584-0.608,3.584-3.2h1.023v7.423
		h-1.023c0-2.624-0.641-2.976-3.584-2.976h-3.744v8.799h4.128c4.96,0.032,5.535-0.736,6.783-4.544h1.024L766.207,42.345z"/>
</g>
<polyline fill="none" stroke="#000000" stroke-width="2" points="384.5,398.667 365.167,375.333 80.198,374 "/>
<g>
	<g>
		<line fill="none" stroke="#000000" stroke-width="2" x1="498.5" y1="375.333" x2="725.546" y2="375.333"/>
		<g>
			<polygon points="739.667,375.333 719.769,383.464 724.49,375.333 719.769,367.204 			"/>
		</g>
	</g>
</g>
<polyline fill="none" stroke="#000000" stroke-width="2" points="384.5,351.999 403.834,375.333 459.5,375.333 "/>
<g>
	<path d="M483.192,379.696c0,0-0.14,0.616-0.14,1.036c0,0.363,0.111,0.588,0.531,0.588c0.896,0,1.68-0.98,2.045-1.456l0.56,0.42
		c-1.148,1.735-2.269,2.996-4.005,2.996c-0.924,0-1.483-0.448-1.483-1.261c0-0.531,0.112-0.896,0.168-1.399H480.7
		c-1.399,1.792-3.08,2.716-4.647,2.716c-1.765,0-3.137-1.344-3.137-4.172c0-5.376,3.305-9.576,7.112-9.576
		c1.399,0,2.239,0.784,2.716,1.484h0.112l0.979-1.288h1.428L483.192,379.696z M479.805,370.652c-2.633,0-4.424,3.836-4.424,7.644
		c0,2.464,0.783,3.192,1.987,3.192c1.652,0,3.36-1.513,3.864-3.528c0.279-1.12,0.867-3.696,0.867-4.676
		C482.1,371.94,481.288,370.652,479.805,370.652z"/>
</g>
<circle fill="#009600" cx="80.198" cy="131.984" r="9.921"/>
<circle fill="#0000FF" cx="80.198" cy="323" r="9.921"/>
<circle fill="#FF0000" cx="739.667" cy="54.833" r="9.921"/>
</svg>
